<?xml version="1.0" encoding="UTF-8" standalone="no" ?>
<!DOCTYPE svg PUBLIC "-//W3C//DTD SVG 1.1//EN" "http://www.w3.org/Graphics/SVG/1.1/DTD/svg11.dtd">
<svg xmlns="http://www.w3.org/2000/svg" xmlns:xlink="http://www.w3.org/1999/xlink" version="1.1" width="400" height="400" viewBox="0 0 400 400" xml:space="preserve">
<desc>Created with Fabric.js 3.6.2</desc>
<defs>
</defs>
<g transform="matrix(6.25 0 0 6.25 268.75 225)" id="Gmail"  >
<path style="stroke: none; stroke-width: 1; stroke-dasharray: none; stroke-linecap: butt; stroke-dashoffset: 0; stroke-linejoin: miter; stroke-miterlimit: 4; fill: rgb(38,50,56); fill-rule: nonzero; opacity: 1;"  transform=" translate(-27, -20)" d="M 27 27 c -0.276 0 -0.5 -0.224 -0.5 -0.5 v -13 c 0 -0.276 0.224 -0.5 0.5 -0.5 s 0.5 0.224 0.5 0.5 v 13 C 27.5 26.776 27.276 27 27 27 z" stroke-linecap="round" />
</g>
<g transform="matrix(6.25 0 0 6.25 131.25 225)" id="Gmail"  >
<path style="stroke: none; stroke-width: 1; stroke-dasharray: none; stroke-linecap: butt; stroke-dashoffset: 0; stroke-linejoin: miter; stroke-miterlimit: 4; fill: rgb(38,50,56); fill-rule: nonzero; opacity: 1;"  transform=" translate(-5, -20)" d="M 5 27 c -0.276 0 -0.5 -0.224 -0.5 -0.5 v -13 C 4.5 13.224 4.724 13 5 13 s 0.5 0.224 0.5 0.5 v 13 C 5.5 26.776 5.276 27 5 27 z" stroke-linecap="round" />
</g>
<g transform="matrix(6.25 0 0 6.25 190.86 161.06)" id="Gmail"  >
<path style="stroke: none; stroke-width: 1; stroke-dasharray: none; stroke-linecap: butt; stroke-dashoffset: 0; stroke-linejoin: miter; stroke-miterlimit: 4; fill: rgb(38,50,56); fill-rule: nonzero; opacity: 1;"  transform=" translate(-14.54, -9.77)" d="M 16 14.432 c -0.099 0 -0.197 -0.029 -0.282 -0.087 L 3.553 6.021 c -0.228 -0.156 -0.286 -0.467 -0.13 -0.695 c 0.156 -0.228 0.466 -0.287 0.695 -0.13 L 16 13.326 l 8.958 -6.129 c 0.229 -0.156 0.54 -0.097 0.695 0.13 c 0.156 0.228 0.098 0.539 -0.13 0.695 l -9.24 6.322 C 16.197 14.403 16.099 14.432 16 14.432 z" stroke-linecap="round" />
</g>
<g transform="matrix(6.25 0 0 6.25 200 200)" id="Gmail"  >
<path style="stroke: none; stroke-width: 1; stroke-dasharray: none; stroke-linecap: butt; stroke-dashoffset: 0; stroke-linejoin: miter; stroke-miterlimit: 4; fill: rgb(38,50,56); fill-rule: nonzero; opacity: 1;"  transform=" translate(-16, -16)" d="M 28.5 27 h -25 C 2.122 27 1 25.878 1 24.5 v -17 C 1 7.224 1.224 7 1.5 7 S 2 7.224 2 7.5 v 17 C 2 25.327 2.673 26 3.5 26 h 25 c 0.827 0 1.5 -0.673 1.5 -1.5 v -17 C 30 6.673 29.327 6 28.5 6 C 28.224 6 28 5.776 28 5.5 S 28.224 5 28.5 5 C 29.878 5 31 6.122 31 7.5 v 17 C 31 25.878 29.878 27 28.5 27 z" stroke-linecap="round" />
</g>
<g transform="matrix(6.25 0 0 6.25 200 175)" id="Gmail"  >
<path style="stroke: none; stroke-width: 1; stroke-dasharray: none; stroke-linecap: butt; stroke-dashoffset: 0; stroke-linejoin: miter; stroke-miterlimit: 4; fill: rgb(38,50,56); fill-rule: nonzero; opacity: 1;"  transform=" translate(-16, -12)" d="M 16 19 c -0.099 0 -0.198 -0.029 -0.284 -0.088 L 2.066 9.498 C 1.398 9.038 1 8.278 1 7.467 C 1 6.107 2.107 5 3.467 5 h 25.065 C 29.893 5 31 6.107 31 7.467 c 0 0.811 -0.398 1.57 -1.066 2.031 l -13.65 9.414 C 16.198 18.971 16.099 19 16 19 z M 3.467 6 C 2.658 6 2 6.658 2 7.467 C 2 7.95 2.237 8.401 2.634 8.675 L 16 17.893 l 13.366 -9.218 C 29.763 8.401 30 7.95 30 7.467 C 30 6.658 29.342 6 28.533 6 H 3.467 z" stroke-linecap="round" />
</g>
</svg>