<?xml version="1.0" encoding="UTF-8" standalone="no" ?>
<!DOCTYPE svg PUBLIC "-//W3C//DTD SVG 1.1//EN" "http://www.w3.org/Graphics/SVG/1.1/DTD/svg11.dtd">
<svg xmlns="http://www.w3.org/2000/svg" xmlns:xlink="http://www.w3.org/1999/xlink" version="1.1" width="400" height="400" viewBox="0 0 400 400" xml:space="preserve">
<desc>Created with Fabric.js 3.6.2</desc>
<defs>
</defs>
<g transform="matrix(3.13 0 0 3.13 200 200)" id="ig"  >
<path style="stroke: none; stroke-width: 1; stroke-dasharray: none; stroke-linecap: butt; stroke-dashoffset: 0; stroke-linejoin: miter; stroke-miterlimit: 4; fill: rgb(35,31,32); fill-rule: nonzero; opacity: 1;"  transform=" translate(-32, -32)" d="M 50 63 H 14 C 6.8 63 1 57.2 1 50 V 14 C 1 6.8 6.8 1 14 1 h 36 c 7.2 0 13 5.8 13 13 v 36 C 63 57.2 57.2 63 50 63 z M 14 3 C 7.9 3 3 7.9 3 14 v 36 c 0 6.1 4.9 11 11 11 h 36 c 6.1 0 11 -4.9 11 -11 V 14 c 0 -6.1 -4.9 -11 -11 -11 H 14 z" stroke-linecap="round" />
</g>
<g transform="matrix(3.13 0 0 3.13 200 200)" id="ig"  >
<path style="stroke: none; stroke-width: 1; stroke-dasharray: none; stroke-linecap: butt; stroke-dashoffset: 0; stroke-linejoin: miter; stroke-miterlimit: 4; fill: rgb(35,31,32); fill-rule: nonzero; opacity: 1;"  transform=" translate(-32, -32)" d="M 32 48 c -8.8 0 -16 -7.2 -16 -16 s 7.2 -16 16 -16 s 16 7.2 16 16 S 40.8 48 32 48 z M 32 18 c -7.7 0 -14 6.3 -14 14 s 6.3 14 14 14 s 14 -6.3 14 -14 S 39.7 18 32 18 z" stroke-linecap="round" />
</g>
<g transform="matrix(3.13 0 0 3.13 256.25 143.75)" id="ig"  >
<path style="stroke: none; stroke-width: 1; stroke-dasharray: none; stroke-linecap: butt; stroke-dashoffset: 0; stroke-linejoin: miter; stroke-miterlimit: 4; fill: rgb(35,31,32); fill-rule: nonzero; opacity: 1;"  transform=" translate(-50, -14)" d="M 50 17 c -1.7 0 -3 -1.3 -3 -3 s 1.3 -3 3 -3 s 3 1.3 3 3 S 51.7 17 50 17 z M 50 13 c -0.6 0 -1 0.4 -1 1 s 0.4 1 1 1 s 1 -0.4 1 -1 S 50.6 13 50 13 z" stroke-linecap="round" />
</g>
</svg>