<?xml version="1.0" encoding="UTF-8" standalone="no" ?>
<!DOCTYPE svg PUBLIC "-//W3C//DTD SVG 1.1//EN" "http://www.w3.org/Graphics/SVG/1.1/DTD/svg11.dtd">
<svg xmlns="http://www.w3.org/2000/svg" xmlns:xlink="http://www.w3.org/1999/xlink" version="1.1" width="400" height="400" viewBox="0 0 400 400" xml:space="preserve">
<desc>Created with Fabric.js 3.6.2</desc>
<defs>
</defs>
<g transform="matrix(6.25 0 0 6.25 200 209.37)" id="telegram"  >
<path style="stroke: none; stroke-width: 1; stroke-dasharray: none; stroke-linecap: butt; stroke-dashoffset: 0; stroke-linejoin: miter; stroke-miterlimit: 4; fill: rgb(38,50,56); fill-rule: nonzero; opacity: 1;"  transform=" translate(-16, -17.5)" d="M 24.687 30.163 c -0.402 0 -0.843 -0.132 -1.32 -0.395 l -10.803 -7.976 c -0.121 -0.089 -0.195 -0.228 -0.203 -0.378 c -0.007 -0.15 0.053 -0.295 0.165 -0.396 L 25.322 9.503 c 0.205 -0.185 0.521 -0.169 0.706 0.037 c 0.185 0.205 0.168 0.521 -0.037 0.706 l -12.34 11.106 l 10.254 7.576 c 0.271 0.145 0.729 0.329 1.055 0.178 c 0.332 -0.152 0.496 -0.637 0.576 -1.017 l 4.375 -20.617 c 0.17 -0.681 0.088 -1.229 -0.215 -1.481 c -0.231 -0.192 -0.575 -0.206 -0.947 -0.038 L 3.033 15.871 C 2.244 16.188 1.996 16.514 2 16.622 c 0.003 0.071 0.173 0.267 0.68 0.422 l 6.375 1.99 l 6.999 -4.416 c 0.234 -0.146 0.542 -0.077 0.689 0.156 c 0.147 0.233 0.078 0.542 -0.156 0.689 l -7.194 4.539 C 9.269 20.08 9.116 20.1 8.977 20.057 l -6.592 -2.058 c -1.17 -0.358 -1.37 -0.99 -1.384 -1.335 c -0.02 -0.473 0.253 -1.157 1.667 -1.723 l 25.695 -9.908 c 0.697 -0.318 1.445 -0.25 1.974 0.191 c 0.613 0.511 0.813 1.413 0.549 2.474 l -4.371 20.598 c -0.184 0.878 -0.566 1.457 -1.137 1.719 C 25.163 30.114 24.933 30.163 24.687 30.163 z" stroke-linecap="round" />
</g>
<g transform="matrix(6.25 0 0 6.25 200 209.37)" id="telegram"  >
<path style="stroke: none; stroke-width: 1; stroke-dasharray: none; stroke-linecap: butt; stroke-dashoffset: 0; stroke-linejoin: miter; stroke-miterlimit: 4; fill: rgb(38,50,56); fill-rule: nonzero; opacity: 1;"  transform=" translate(-16, -17.5)" d="M 24.687 30.163 c -0.402 0 -0.843 -0.132 -1.32 -0.395 l -6.72 -4.959 c -0.222 -0.164 -0.27 -0.478 -0.105 -0.699 c 0.164 -0.222 0.478 -0.27 0.699 -0.105 l 6.664 4.923 c 0.271 0.145 0.729 0.329 1.055 0.178 c 0.332 -0.152 0.496 -0.637 0.576 -1.017 l 4.375 -20.617 c 0.17 -0.681 0.088 -1.229 -0.215 -1.481 c -0.231 -0.192 -0.575 -0.206 -0.947 -0.038 L 3.033 15.871 C 2.244 16.188 1.996 16.514 2 16.622 c 0.003 0.071 0.173 0.267 0.68 0.422 l 6.594 2.058 c 0.158 0.049 0.281 0.174 0.33 0.332 l 2.267 7.461 c 0.061 0.167 0.108 0.333 0.149 0.477 c 0.032 0.114 0.072 0.256 0.099 0.298 c -0.004 -0.005 0.076 0.019 0.289 0.02 c 0.447 0 0.617 -0.167 0.957 -0.498 l 1.66 -1.614 c 0.198 -0.194 0.514 -0.188 0.707 0.01 c 0.192 0.198 0.188 0.515 -0.01 0.707 L 14.09 27.88 c -0.402 0.393 -0.828 0.809 -1.682 0.809 c -0.98 0 -1.178 -0.434 -1.351 -1.046 c -0.035 -0.124 -0.075 -0.267 -0.135 -0.432 l -2.198 -7.233 l -6.339 -1.979 c -1.17 -0.358 -1.37 -0.99 -1.384 -1.335 c -0.02 -0.473 0.253 -1.157 1.667 -1.723 l 25.695 -9.908 c 0.697 -0.318 1.445 -0.25 1.974 0.191 c 0.613 0.511 0.813 1.413 0.549 2.474 l -4.371 20.598 c -0.184 0.878 -0.566 1.457 -1.137 1.719 C 25.163 30.114 24.933 30.163 24.687 30.163 z" stroke-linecap="round" />
</g>
<g transform="matrix(6.25 0 0 6.25 212.5 187.5)" id="telegram"  >
<path style="stroke: none; stroke-width: 1; stroke-dasharray: none; stroke-linecap: butt; stroke-dashoffset: 0; stroke-linejoin: miter; stroke-miterlimit: 4; fill: rgb(38,50,56); fill-rule: nonzero; opacity: 1;"  transform=" translate(-18, -14)" d="M 18.5 14 c 0 0.275 -0.225 0.5 -0.5 0.5 l 0 0 c -0.275 0 -0.5 -0.225 -0.5 -0.5 l 0 0 c 0 -0.275 0.225 -0.5 0.5 -0.5 l 0 0 C 18.275 13.5 18.5 13.725 18.5 14 L 18.5 14 z" stroke-linecap="round" />
</g>
</svg>